<?xml version="1.0" standalone="no"?>
<!DOCTYPE svg PUBLIC "-//W3C//DTD SVG 20010904//EN"
 "http://www.w3.org/TR/2001/REC-SVG-20010904/DTD/svg10.dtd">
<svg version="1.0" xmlns="http://www.w3.org/2000/svg"
 width="60.000000pt" height="60.000000pt" viewBox="0 0 60.000000 60.000000"
 preserveAspectRatio="xMidYMid meet">

<g transform="translate(0.000000,60.000000) scale(0.100000,-0.100000)"
fill="#000000" stroke="none">
<path d="M267 594 c-4 -4 -7 -22 -7 -40 0 -36 23 -51 61 -39 16 5 20 14 17 43
-3 33 -6 37 -33 40 -17 2 -34 0 -38 -4z"/>
<path d="M167 499 c-32 -16 -55 -34 -52 -39 6 -11 125 49 125 63 0 12 -12 8
-73 -24z"/>
<path d="M360 523 c0 -14 119 -74 125 -63 3 5 -21 23 -54 40 -65 32 -71 34
-71 23z"/>
<path d="M290 480 c0 -5 5 -10 10 -10 6 0 10 5 10 10 0 6 -4 10 -10 10 -5 0
-10 -4 -10 -10z"/>
<path d="M17 463 c-13 -12 -7 -60 8 -73 38 -31 96 27 65 65 -13 15 -61 21 -73
8z"/>
<path d="M511 456 c-20 -23 -5 -65 24 -72 35 -9 57 12 53 50 -3 27 -7 31 -34
34 -19 2 -36 -3 -43 -12z"/>
<path d="M248 412 c-26 -15 -47 -31 -45 -35 1 -5 24 -20 50 -34 l47 -26 47 26
c26 14 49 29 50 34 2 6 -90 65 -100 62 -1 0 -23 -12 -49 -27z"/>
<path d="M123 383 c9 -9 19 -14 23 -11 10 10 -6 28 -24 28 -15 0 -15 -1 1 -17z"/>
<path d="M455 389 c-12 -19 5 -23 22 -6 16 16 16 17 1 17 -9 0 -20 -5 -23 -11z"/>
<path d="M40 300 c0 -33 4 -60 10 -60 6 0 10 27 10 60 0 33 -4 60 -10 60 -6 0
-10 -27 -10 -60z"/>
<path d="M180 293 l0 -68 50 -27 c28 -16 52 -28 55 -28 3 0 5 29 3 65 l-3 66
-52 29 -53 30 0 -67z"/>
<path d="M363 328 l-53 -30 0 -64 c0 -35 2 -64 5 -64 3 0 27 12 55 28 l50 27
0 68 c0 37 -1 67 -2 66 -2 0 -27 -14 -55 -31z"/>
<path d="M540 300 c0 -33 4 -60 10 -60 6 0 10 27 10 60 0 33 -4 60 -10 60 -6
0 -10 -27 -10 -60z"/>
<path d="M119 214 c-12 -14 -11 -16 5 -13 11 2 21 10 24 17 5 17 -13 15 -29
-4z"/>
<path d="M452 218 c3 -7 13 -15 24 -17 16 -3 17 -1 5 13 -16 19 -34 21 -29 4z"/>
<path d="M21 206 c-7 -8 -11 -27 -9 -43 2 -22 9 -29 31 -31 50 -6 75 38 41 72
-19 20 -48 20 -63 2z"/>
<path d="M516 204 c-34 -34 -9 -78 41 -72 22 2 29 9 31 31 6 50 -38 75 -72 41z"/>
<path d="M115 141 c-6 -11 113 -76 123 -67 7 7 8 7 -60 45 -33 19 -59 28 -63
22z"/>
<path d="M425 120 c-27 -16 -54 -31 -60 -33 -5 -3 -7 -7 -4 -11 10 -11 131 53
124 64 -8 13 -2 15 -60 -20z"/>
<path d="M290 120 c0 -5 5 -10 10 -10 6 0 10 5 10 10 0 6 -4 10 -10 10 -5 0
-10 -4 -10 -10z"/>
<path d="M272 81 c-8 -5 -12 -22 -10 -42 3 -32 6 -34 38 -34 32 0 35 2 38 34
4 34 -9 51 -38 51 -8 0 -21 -4 -28 -9z"/>
</g>
</svg>
